<svg xmlns="http://www.w3.org/2000/svg" width="39.635" height="39.631" viewBox="0 0 39.635 39.631"><defs><style>.a{fill:#1a8d8c;}</style></defs><g transform="translate(-273.72 -84.191)"><g transform="translate(273.72 84.191)"><path class="a" d="M306.951,84.191a7.186,7.186,0,0,1,5.961,4.376,5.453,5.453,0,0,1-1.438,6.264q-12.227,12.225-24.451,24.453a3.213,3.213,0,0,1-1.31.845c-3.554,1.15-7.1,2.321-10.651,3.479-.36.117-.733.388-1.112.049-.438-.394-.142-.82-.013-1.218,1.155-3.552,2.327-7.1,3.474-10.654a3.475,3.475,0,0,1,.944-1.4q12.136-12.131,24.268-24.266A5.878,5.878,0,0,1,306.951,84.191Zm-20.619,33.772c.421-.009.571-.319.777-.521,1.346-1.329,2.676-2.672,4.013-4.01q8.256-8.256,16.514-16.51c.479-.477.969-.8.178-1.542-1.957-1.832-3.827-3.759-5.693-5.685-.529-.546-.838-.491-1.355.028q-10.332,10.378-20.715,20.706c-.55.547-.477.852.034,1.35,1.922,1.872,3.8,3.786,5.7,5.683C285.97,117.645,286.169,117.814,286.332,117.963Zm25.738-27.088a6.129,6.129,0,0,0-3.994-5.288,5.192,5.192,0,0,0-5.4,2.227c-.3.445-.072.631.171.874q2.979,2.993,5.972,5.974c.228.226.458.6.866.205C310.9,93.7,312.172,92.577,312.071,90.876Zm-31.927,29.785c1.692-.587,3.4-1.132,5.076-1.686l-6.642-6.707c-.343,1.028-.687,2.051-1.025,3.076l-1.382,4.291-.866,2.6,2.549-.843Z" transform="translate(-273.72 -84.191)"/><path class="a" d="M290.827,116.952c-.507-.146-.7-.474-.357-.957a7.082,7.082,0,0,1,.817-.857q7.317-7.319,14.636-14.637c.155-.156.308-.313.468-.464.311-.293.648-.511,1.018-.112s.076.721-.193,1.021c-.117.131-.247.25-.371.374q-7.457,7.462-14.916,14.919C291.629,116.54,291.379,116.947,290.827,116.952Z" transform="translate(-277.321 -87.562)"/><path class="a" d="M287.324,113.426c-.473-.113-.683-.433-.458-.866a3.943,3.943,0,0,1,.762-.9q7.36-7.37,14.73-14.731c.217-.217.441-.427.673-.629a.546.546,0,0,1,.82.05.557.557,0,0,1-.015.823c-.142.168-.3.323-.452.478q-7.55,7.554-15.1,15.1C288.01,113.029,287.786,113.391,287.324,113.426Z" transform="translate(-276.556 -86.787)"/></g></g></svg>